<?xml version="1.0" encoding="UTF-8"?>
<svg width="512" height="512" viewBox="0 0 512 512" fill="none" xmlns="http://www.w3.org/2000/svg">
  <!-- Background circle -->
  <rect width="512" height="512" rx="256" fill="#1A4971"/>
  
  <!-- Magnifying glass handle -->
  <path d="M352 352L440 440" stroke="#FFFFFF" stroke-width="40" stroke-linecap="round"/>
  
  <!-- Magnifying glass circle -->
  <circle cx="240" cy="240" r="140" stroke="#FFFFFF" stroke-width="24" fill="none"/>
  
  <!-- Colored segments inside the magnifying glass -->
  <path d="M240 100C184.772 100 140 144.772 140 200C140 255.228 184.772 300 240 300C295.228 300 340 255.228 340 200C340 144.772 295.228 100 240 100Z" fill="none"/>
  
  <!-- Reporting segment (green) -->
  <path d="M240 120C240 120 190 140 170 200C150 260 170 280 170 280" stroke="#4CAF50" stroke-width="20" stroke-linecap="round"/>
  
  <!-- Transforming segment (orange) -->
  <path d="M240 120C240 120 290 140 310 200C330 260 310 280 310 280" stroke="#FF9800" stroke-width="20" stroke-linecap="round"/>
  
  <!-- Evaluating segment (purple) -->
  <path d="M170 200C170 200 200 240 240 240C280 240 310 200 310 200" stroke="#9C27B0" stroke-width="20" stroke-linecap="round"/>
  
  <!-- No Citation segment (gray) -->
  <path d="M170 280C170 280 200 240 240 240C280 240 310 280 310 280" stroke="#757575" stroke-width="20" stroke-linecap="round"/>
  
  <!-- Glass reflection -->
  <path d="M200 180C200 180 210 160 240 160C270 160 280 180 280 180" stroke="#FFFFFF" stroke-width="8" stroke-linecap="round" opacity="0.6"/>
</svg>
